<?xml version="1.0" standalone="no"?>
<!DOCTYPE svg PUBLIC "-//W3C//DTD SVG 20010904//EN"
 "http://www.w3.org/TR/2001/REC-SVG-20010904/DTD/svg10.dtd">
<svg version="1.0" xmlns="http://www.w3.org/2000/svg"
 width="50.000000pt" height="50.000000pt" viewBox="0 0 50.000000 50.000000"
 preserveAspectRatio="xMidYMid meet">
<metadata>
Created by potrace 1.16, written by Peter Selinger 2001-2019
</metadata>
<g transform="translate(0.000000,50.000000) scale(0.100000,-0.100000)"
fill="#000000" stroke="none">
<path d="M143 459 c-88 -44 -127 -117 -121 -224 4 -85 33 -138 100 -182 62
-41 194 -41 256 0 23 15 54 46 69 69 25 37 28 50 28 128 0 78 -3 91 -28 128
-45 69 -97 96 -186 100 -62 2 -84 -1 -118 -19z m203 -161 c-3 -18 -8 -56 -12
-84 -10 -78 -15 -81 -69 -44 l-47 32 43 44 c52 53 38 57 -35 8 -41 -27 -59
-34 -80 -28 -14 3 -26 9 -26 13 0 8 190 89 214 90 15 1 17 -4 12 -31z"/>
</g>
</svg>
